<mxfile host="app.diagrams.net" agent="Mozilla/5.0 (Windows NT 10.0; Win64; x64) AppleWebKit/537.36 (KHTML, like Gecko) Chrome/127.0.0.0 Safari/537.36" version="24.7.6">
  <diagram id="prtHgNgQTEPvFCAcTncT" name="Page-1">
    <mxGraphModel dx="1221" dy="725" grid="1" gridSize="10" guides="1" tooltips="1" connect="1" arrows="1" fold="1" page="1" pageScale="1" pageWidth="827" pageHeight="1169" math="0" shadow="0">
      <root>
        <mxCell id="0" />
        <mxCell id="1" parent="0" />
        <mxCell id="dNxyNK7c78bLwvsdeMH5-11" value="&lt;h1&gt;&lt;span style=&quot;font-size: 20px;&quot;&gt;晴雨天气智能识别模型及应用框架&lt;/span&gt;&lt;/h1&gt;" style="swimlane;html=1;startSize=30;horizontal=1;containerType=tree;glass=0;fillColor=#CCE5FF;strokeColor=#10739e;" parent="1" vertex="1">
          <mxGeometry x="40" y="50" width="640" height="310" as="geometry">
            <mxRectangle x="40" y="60" width="300" height="30" as="alternateBounds" />
          </mxGeometry>
        </mxCell>
        <mxCell id="rPXOYnH2ntTloaIz4I9G-19" value="" style="rounded=0;whiteSpace=wrap;html=1;fillColor=#CCFFE6;strokeColor=none;opacity=60;" parent="dNxyNK7c78bLwvsdeMH5-11" vertex="1">
          <mxGeometry y="30" width="640" height="280" as="geometry" />
        </mxCell>
        <mxCell id="rPXOYnH2ntTloaIz4I9G-18" value="" style="rounded=0;whiteSpace=wrap;html=1;fillColor=#007FFF;strokeColor=none;opacity=60;" parent="dNxyNK7c78bLwvsdeMH5-11" vertex="1">
          <mxGeometry x="180" y="40" width="380" height="70" as="geometry" />
        </mxCell>
        <mxCell id="rPXOYnH2ntTloaIz4I9G-17" value="" style="rounded=0;whiteSpace=wrap;html=1;fillColor=#45bef2;strokeColor=none;opacity=60;" parent="dNxyNK7c78bLwvsdeMH5-11" vertex="1">
          <mxGeometry x="180" y="130" width="380" height="80" as="geometry" />
        </mxCell>
        <mxCell id="rPXOYnH2ntTloaIz4I9G-14" value="" style="rounded=0;whiteSpace=wrap;html=1;fillColor=#b0e3e6;strokeColor=none;opacity=70;" parent="dNxyNK7c78bLwvsdeMH5-11" vertex="1">
          <mxGeometry x="180" y="240" width="380" height="60" as="geometry" />
        </mxCell>
        <mxCell id="rPXOYnH2ntTloaIz4I9G-2" value="&lt;font style=&quot;&quot; face=&quot;Verdana&quot;&gt;&lt;span style=&quot;font-size: 14px;&quot;&gt;&lt;b&gt;结果分析与展示模块&lt;/b&gt;&lt;/span&gt;&lt;br&gt;&lt;br&gt;&lt;br&gt;&lt;br&gt;&lt;br&gt;&lt;br&gt;&lt;b style=&quot;font-size: 14px;&quot;&gt;深度学习模块&lt;/b&gt;&lt;/font&gt;&lt;div&gt;&lt;b style=&quot;font-size: 14px;&quot;&gt;&lt;font style=&quot;font-size: 14px;&quot; face=&quot;Verdana&quot;&gt;&lt;br&gt;&lt;/font&gt;&lt;/b&gt;&lt;/div&gt;&lt;div&gt;&lt;b style=&quot;font-size: 14px;&quot;&gt;&lt;font style=&quot;font-size: 14px;&quot; face=&quot;Verdana&quot;&gt;&lt;br&gt;&lt;/font&gt;&lt;/b&gt;&lt;/div&gt;&lt;div&gt;&lt;br&gt;&lt;/div&gt;&lt;div&gt;&lt;font style=&quot;&quot; face=&quot;Verdana&quot;&gt;&lt;br&gt;&lt;br&gt;&lt;span style=&quot;font-size: 14px;&quot;&gt;&lt;b&gt;数据采集与预处理模块&lt;/b&gt;&lt;/span&gt;&lt;br&gt;&lt;/font&gt;&lt;/div&gt;" style="rounded=0;whiteSpace=wrap;html=1;strokeWidth=0;strokeColor=none;fillColor=#CCFFE6;" parent="dNxyNK7c78bLwvsdeMH5-11" vertex="1">
          <mxGeometry x="10" y="40" width="160" height="260" as="geometry" />
        </mxCell>
        <mxCell id="rPXOYnH2ntTloaIz4I9G-3" value="&lt;b&gt;公开数据&lt;/b&gt;" style="shape=cylinder3;whiteSpace=wrap;html=1;boundedLbl=1;backgroundOutline=1;size=7.79998779296875;fillColor=#CCFFFF;fontColor=#000000;strokeColor=#9aa9fe;fillStyle=solid;strokeWidth=0.5;" parent="dNxyNK7c78bLwvsdeMH5-11" vertex="1">
          <mxGeometry x="230" y="245" width="80" height="50" as="geometry" />
        </mxCell>
        <mxCell id="rPXOYnH2ntTloaIz4I9G-4" value="&lt;b&gt;站点数据&lt;/b&gt;" style="shape=cylinder3;whiteSpace=wrap;html=1;boundedLbl=1;backgroundOutline=1;size=7.79998779296875;fillColor=#CCFFFF;fontColor=#000000;strokeColor=#9aa9fe;fillStyle=solid;strokeWidth=0.5;" parent="dNxyNK7c78bLwvsdeMH5-11" vertex="1">
          <mxGeometry x="408" y="245" width="80" height="50" as="geometry" />
        </mxCell>
        <mxCell id="rPXOYnH2ntTloaIz4I9G-8" value="&lt;b&gt;基于迁移学习的Swin-Transformer模型训练&lt;/b&gt;" style="rounded=0;whiteSpace=wrap;html=1;strokeWidth=0.5;fillColor=#b1ddf0;strokeColor=#10739e;" parent="dNxyNK7c78bLwvsdeMH5-11" vertex="1">
          <mxGeometry x="190" y="140" width="160" height="60" as="geometry" />
        </mxCell>
        <mxCell id="rPXOYnH2ntTloaIz4I9G-10" value="&lt;b&gt;晴雨识别智能模型&lt;/b&gt;&lt;div&gt;&lt;b&gt;验证、测试和识别&lt;/b&gt;&lt;/div&gt;" style="rounded=0;whiteSpace=wrap;html=1;strokeWidth=0.5;fillColor=#b1ddf0;strokeColor=#10739e;" parent="dNxyNK7c78bLwvsdeMH5-11" vertex="1">
          <mxGeometry x="370" y="140" width="156" height="60" as="geometry" />
        </mxCell>
        <mxCell id="rPXOYnH2ntTloaIz4I9G-12" value="&lt;b&gt;晴雨天气智能识别综合展示前端界面&lt;/b&gt;" style="rounded=1;whiteSpace=wrap;html=1;fillColor=#dae8fc;strokeColor=#6c8ebf;" parent="dNxyNK7c78bLwvsdeMH5-11" vertex="1">
          <mxGeometry x="205" y="50" width="130" height="50" as="geometry" />
        </mxCell>
        <mxCell id="rPXOYnH2ntTloaIz4I9G-13" value="&lt;b&gt;晴雨天气智能识别&lt;/b&gt;&lt;div&gt;&lt;b&gt;易迁移可执行应用&lt;/b&gt;&lt;br&gt;&lt;/div&gt;" style="rounded=1;whiteSpace=wrap;html=1;fillColor=#dae8fc;strokeColor=#6c8ebf;" parent="dNxyNK7c78bLwvsdeMH5-11" vertex="1">
          <mxGeometry x="383" y="50" width="130" height="50" as="geometry" />
        </mxCell>
        <mxCell id="rPXOYnH2ntTloaIz4I9G-20" value="" style="endArrow=none;dashed=1;html=1;rounded=0;" parent="dNxyNK7c78bLwvsdeMH5-11" edge="1">
          <mxGeometry width="50" height="50" relative="1" as="geometry">
            <mxPoint x="180" y="230" as="sourcePoint" />
            <mxPoint x="580" y="229" as="targetPoint" />
          </mxGeometry>
        </mxCell>
        <mxCell id="rPXOYnH2ntTloaIz4I9G-21" value="" style="endArrow=none;dashed=1;html=1;rounded=0;" parent="dNxyNK7c78bLwvsdeMH5-11" edge="1">
          <mxGeometry width="50" height="50" relative="1" as="geometry">
            <mxPoint x="180" y="120" as="sourcePoint" />
            <mxPoint x="580" y="120" as="targetPoint" />
          </mxGeometry>
        </mxCell>
        <mxCell id="NqGaTKBzIDccmQ2wgLW6-1" value="&lt;div&gt;&lt;font style=&quot;font-size: 14px;&quot; face=&quot;Verdana&quot;&gt;&lt;b&gt;系&lt;/b&gt;&lt;/font&gt;&lt;/div&gt;&lt;div&gt;&lt;font style=&quot;font-size: 14px;&quot; face=&quot;Verdana&quot;&gt;&lt;b&gt;统&lt;/b&gt;&lt;/font&gt;&lt;/div&gt;&lt;div&gt;&lt;font style=&quot;font-size: 14px;&quot; face=&quot;Verdana&quot;&gt;&lt;b&gt;管&lt;/b&gt;&lt;/font&gt;&lt;/div&gt;&lt;div&gt;&lt;font style=&quot;font-size: 14px;&quot; face=&quot;Verdana&quot;&gt;&lt;b&gt;理&lt;/b&gt;&lt;/font&gt;&lt;/div&gt;&lt;div&gt;&lt;font style=&quot;font-size: 14px;&quot; face=&quot;Verdana&quot;&gt;&lt;b&gt;模&lt;/b&gt;&lt;/font&gt;&lt;/div&gt;&lt;div&gt;&lt;font style=&quot;font-size: 14px;&quot; face=&quot;Verdana&quot;&gt;&lt;b&gt;块&lt;/b&gt;&lt;/font&gt;&lt;/div&gt;" style="rounded=0;whiteSpace=wrap;html=1;strokeWidth=0;strokeColor=none;fillColor=#CCFFE6;" vertex="1" parent="dNxyNK7c78bLwvsdeMH5-11">
          <mxGeometry x="580" y="40" width="50" height="260" as="geometry" />
        </mxCell>
      </root>
    </mxGraphModel>
  </diagram>
</mxfile>
